<?xml version="1.0" encoding="UTF-8"?>
<svg xmlns="http://www.w3.org/2000/svg" xmlns:xlink="http://www.w3.org/1999/xlink" width="32px" height="32px" viewBox="0 0 32 32" version="1.1">
<g id="surface1">
<path style=" stroke:none;fill-rule:nonzero;fill:rgb(38.823529%,83.921569%,82.745098%);fill-opacity:1;" d="M 14.332031 4.292969 C 14.332031 4.742188 13.964844 5.105469 13.515625 5.105469 C 13.0625 5.105469 12.699219 4.742188 12.699219 4.292969 C 12.699219 3.839844 13.0625 3.476562 13.515625 3.476562 C 13.964844 3.476562 14.332031 3.839844 14.332031 4.292969 Z M 14.332031 4.292969 "/>
<path style=" stroke:none;fill-rule:nonzero;fill:rgb(38.823529%,83.921569%,82.745098%);fill-opacity:1;" d="M 19.464844 4.292969 C 19.464844 4.742188 19.101562 5.105469 18.648438 5.105469 C 18.199219 5.105469 17.832031 4.742188 17.832031 4.292969 C 17.832031 3.839844 18.199219 3.476562 18.648438 3.476562 C 19.101562 3.476562 19.464844 3.839844 19.464844 4.292969 Z M 19.464844 4.292969 "/>
<path style=" stroke:none;fill-rule:nonzero;fill:rgb(38.823529%,83.921569%,82.745098%);fill-opacity:1;" d="M 4.921875 0.742188 L 4.921875 12.714844 L 14.652344 12.714844 L 14.652344 13.734375 L 4.921875 13.734375 L 4.921875 31.261719 L 10.578125 31.261719 L 14.886719 26.953125 L 12.410156 24.476562 L 14.886719 22.003906 L 14.164062 21.28125 L 10.964844 24.476562 L 12.367188 25.882812 L 9.535156 28.714844 L 7.46875 28.714844 L 7.46875 16.28125 L 24.53125 16.28125 L 24.53125 28.710938 L 22.464844 28.710938 L 19.632812 25.882812 L 21.035156 24.476562 L 17.835938 21.277344 L 17.113281 22.003906 L 19.589844 24.476562 L 17.113281 26.953125 L 21.421875 31.261719 L 27.082031 31.261719 L 27.082031 13.734375 L 17.347656 13.734375 L 17.347656 12.714844 L 27.082031 12.714844 L 27.082031 0.742188 Z M 24.53125 10.167969 L 7.46875 10.167969 L 7.46875 3.109375 L 24.53125 3.109375 Z M 24.53125 10.167969 "/>
<path style=" stroke:none;fill-rule:nonzero;fill:rgb(38.823529%,83.921569%,82.745098%);fill-opacity:1;" d="M 14.757812 15.84375 L 16.078125 14.523438 L 17.398438 15.84375 L 16.078125 17.164062 Z M 14.757812 15.84375 "/>
</g>
</svg>
